<svg width="40" height="40" viewBox="0 0 40 40" fill="none" xmlns="http://www.w3.org/2000/svg">
<g id="Group 4055">
<circle id="Ellipse 269" opacity="0.3" cx="20" cy="20" r="19" stroke="#1961AC" stroke-width="2"/>
<circle id="Ellipse 270" cx="20" cy="20" r="15" fill="#1961AC"/>
<path id="Vector" d="M26.6666 26.6789C26.6666 26.9909 26.5427 27.2902 26.322 27.5108C26.1014 27.7314 25.8022 27.8554 25.4901 27.8554C25.1781 27.8554 24.8789 27.7314 24.6582 27.5108C24.4376 27.2902 24.3137 26.9909 24.3137 26.6789V26.2868H15.5552V26.6789C15.5552 26.9909 15.4313 27.2902 15.2107 27.5108C14.99 27.7314 14.6908 27.8554 14.3788 27.8554C14.0667 27.8554 13.7675 27.7314 13.5469 27.5108C13.3262 27.2902 13.2023 26.9909 13.2023 26.6789V26.2868H12.9411C12.6291 26.2868 12.3299 26.1628 12.1092 25.9422C11.8886 25.7216 11.7646 25.4223 11.7646 25.1103V20.4044C11.7646 20.0924 11.8886 19.7932 12.1092 19.5725C12.3299 19.3519 12.6291 19.2279 12.9411 19.2279H12.9992L13.8384 13.5652C13.8797 13.2862 14.0199 13.0314 14.2334 12.8471C14.4469 12.6629 14.7195 12.5614 15.0015 12.5613H24.9984C25.2804 12.5614 25.553 12.6629 25.7665 12.8471C25.98 13.0314 26.1201 13.2862 26.1615 13.5652L27.0007 19.2279H27.0588C27.3708 19.2279 27.67 19.3519 27.8907 19.5725C28.1113 19.7932 28.2352 20.0924 28.2352 20.4044V25.1103C28.2352 25.4223 28.1113 25.7216 27.8907 25.9422C27.67 26.1628 27.3708 26.2868 27.0588 26.2868H26.6666V26.6789V26.6789ZM16.2745 21.973H14.7058C14.4537 21.9719 14.2109 22.0679 14.0277 22.2411C13.8445 22.4143 13.7351 22.6514 13.7222 22.9032C13.7092 23.1549 13.7938 23.402 13.9583 23.5931C14.1228 23.7841 14.3545 23.9045 14.6054 23.9291L14.7058 23.9338H16.2745C16.5345 23.9338 16.7838 23.8305 16.9677 23.6467C17.1516 23.4628 17.2548 23.2135 17.2548 22.9534C17.2548 22.6934 17.1516 22.4441 16.9677 22.2602C16.7838 22.0763 16.5345 21.973 16.2745 21.973V21.973ZM25.2941 21.973H23.7254C23.4733 21.9719 23.2305 22.0679 23.0473 22.2411C22.8641 22.4143 22.7547 22.6514 22.7418 22.9032C22.7289 23.1549 22.8134 23.402 22.9779 23.5931C23.1424 23.7841 23.3741 23.9045 23.625 23.9291L23.7254 23.9338H25.2941C25.5541 23.9338 25.8034 23.8305 25.9873 23.6467C26.1712 23.4628 26.2745 23.2135 26.2745 22.9534C26.2745 22.6934 26.1712 22.4441 25.9873 22.2602C25.8034 22.0763 25.5541 21.973 25.2941 21.973ZM23.4901 14.9142H16.5662C16.4291 14.9144 16.2958 14.9595 16.1867 15.0427C16.0776 15.1258 15.9988 15.2424 15.9623 15.3746L15.945 15.4578L15.4345 19.2279H24.6274L24.1121 15.457C24.0936 15.321 24.0311 15.1948 23.934 15.0978C23.837 15.0007 23.7108 14.9382 23.5748 14.9197L23.4901 14.9142V14.9142Z" fill="white"/>
</g>
</svg>
