<svg width="34" height="34" viewBox="0 0 34 34" fill="none" xmlns="http://www.w3.org/2000/svg">
<circle opacity="0.3" cx="17" cy="17" r="16" stroke="#1961AC" stroke-width="2"/>
<circle cx="17" cy="17" r="13" fill="#1961AC"/>
<path fill-rule="evenodd" clip-rule="evenodd" d="M12.9435 13.1738C12.957 11.6733 13.7635 10.3601 14.9685 9.62463L15.2735 11.8442C15.3077 12.0934 15.5382 12.2732 15.7882 12.2458C16.0382 12.2183 16.2132 11.9941 16.1789 11.7449L15.8323 9.22225L15.8367 9.22077C16.2649 9.07761 16.7235 9 17.2005 9C17.4215 9 17.6386 9.01666 17.8505 9.04877C18.096 9.08598 18.3346 9.14393 18.5644 9.22077L18.5722 9.22338L18.2257 11.7449C18.1915 11.9941 18.3664 12.2183 18.6164 12.2458C18.8665 12.2732 19.0969 12.0934 19.1312 11.8442L19.4359 9.62662C20.6391 10.3625 21.4441 11.6746 21.4576 13.1738H22.3259C22.518 13.1738 22.6737 13.3295 22.6737 13.5216C22.6737 13.7137 22.518 13.8694 22.3259 13.8694H12.1231C11.931 13.8694 11.7753 13.7137 11.7753 13.5216C11.7753 13.3295 11.931 13.1738 12.1231 13.1738H12.9435ZM13.217 14.5654C13.5197 17.2662 15.1729 19.3308 17.1669 19.3308C19.1609 19.3308 20.8141 17.2662 21.1169 14.5654H13.217ZM12.5558 19.6432C13.0054 19.4404 13.5054 19.2637 14.0613 19.1217C14.7674 20.0906 15.9225 20.7219 17.2275 20.7219C18.5404 20.7219 19.7014 20.083 20.4064 19.1043C20.9596 19.2542 21.4534 19.4451 21.8948 19.6668V24.9988H23.1466C23.1225 24.9997 23.0983 25.0001 23.0741 25.0001H12.5558V19.6432ZM23.4517 24.9644V20.7435C24.0338 21.285 24.4661 21.8861 24.7962 22.48C25.388 23.5449 24.6034 24.7442 23.4517 24.9644ZM10.9988 20.5855C10.0323 21.3561 9.45081 22.2578 9.10963 23.0639C8.6791 24.0811 9.55766 25.0001 10.6622 25.0001H10.9988V20.5855Z" fill="white"/>
<path fill-rule="evenodd" clip-rule="evenodd" d="M10.9985 20.5857V24.9999H12.5554V19.6435C11.9491 19.917 11.4346 20.238 10.9985 20.5857Z" fill="white" fill-opacity="0.6"/>
<path fill-rule="evenodd" clip-rule="evenodd" d="M21.894 19.6673V24.9987H23.451V20.7454C23.0204 20.3444 22.5079 19.976 21.894 19.6673Z" fill="white" fill-opacity="0.6"/>
</svg>
